<svg width="79" height="24" viewBox="0 0 79 24" fill="none" xmlns="http://www.w3.org/2000/svg">
<g clip-path="url(#clip0_3401_67318)">
<path d="M16.7638 0H7.23618C3.23975 0 0 3.23975 0 7.23618V16.7638C0 20.7603 3.23975 24 7.23618 24H16.7638C20.7603 24 24 20.7603 24 16.7638V7.23618C24 3.23975 20.7603 0 16.7638 0Z" fill="#EAE6FF"/>
<path d="M28.6484 14.3684C28.6484 9.88257 31.6252 6.95703 36.0761 6.95703C39.9432 6.95703 42.5859 9.24178 42.8642 12.808H38.7189C38.4128 11.387 37.4393 10.5234 36.0761 10.5234C34.2122 10.5234 32.9605 12.0278 32.9605 14.3684C32.9605 16.709 34.2122 18.2134 36.0761 18.2134C37.4672 18.2134 38.4685 17.2939 38.7746 15.7615H42.9199C42.6415 19.4395 39.971 21.7797 36.0761 21.7797C31.6252 21.7797 28.6484 18.8542 28.6484 14.3684Z" fill="white"/>
<path d="M45.1484 2.37891H49.4048V4.96997C49.4048 7.42181 48.8762 9.45577 48.0137 11.0439V11.3226H49.4048C49.9056 8.98209 51.4356 7.50551 53.9393 7.50551C56.8882 7.50551 58.5297 9.53947 58.5297 13.2174V21.8828H54.2734V13.9977C54.2734 12.0474 53.4388 11.0721 51.9365 11.0721C50.5176 11.0721 49.4048 12.5487 49.4048 14.4156V21.8828H45.1484V2.37891Z" fill="white"/>
<path d="M61.1719 2.24951H65.4282V6.15033H61.1719V2.24951ZM61.1997 7.82219H65.4282V21.7533H61.1997V7.82219Z" fill="white"/>
<path d="M70.0439 18.0754L70.0718 11.1656H67.2344V7.82221H70.1832V3.92139H73.7998V7.82221H77.6109V11.1656H73.9387V17.2954C73.9387 18.1033 74.2169 18.4099 74.9124 18.4099H77.9449V21.7533H73.7443C71.2963 21.7533 70.0442 20.416 70.0442 18.0754H70.0439Z" fill="white"/>
<path d="M19.3648 19.8713C19.3155 19.9065 19.2657 19.9416 19.2158 19.9759C19.206 19.9826 19.1961 19.9894 19.1863 19.996C19.1639 20.0116 19.1415 20.0266 19.119 20.0417C19.0944 20.058 19.0702 20.0742 19.0453 20.0904C19.0271 20.1027 19.0086 20.1148 18.9897 20.1269C18.9879 20.1277 18.9861 20.1292 18.9842 20.1302C18.9602 20.146 18.9358 20.1616 18.9116 20.1769C18.8819 20.1957 18.8523 20.2142 18.8227 20.2325C18.793 20.2508 18.7634 20.2689 18.7336 20.2868C18.7081 20.3023 18.6826 20.3174 18.6571 20.3325C18.6417 20.3418 18.6259 20.3511 18.6102 20.3601C18.5823 20.3763 18.5544 20.3926 18.5264 20.4085C18.493 20.4275 18.4592 20.4466 18.4257 20.465C18.3937 20.4826 18.3618 20.5004 18.3296 20.5175C18.3056 20.5306 18.2814 20.5434 18.2573 20.556C18.2394 20.5657 18.221 20.5754 18.2029 20.5847C18.2016 20.5856 18.1999 20.5864 18.1986 20.5871C18.1444 20.6151 18.0898 20.6429 18.0349 20.6701C18.0037 20.6856 17.9722 20.7008 17.9407 20.7159C17.9214 20.7254 17.9023 20.7347 17.8831 20.7435C17.8574 20.7558 17.8317 20.7679 17.8058 20.7799C17.7384 20.8111 17.6703 20.8416 17.602 20.8712C17.5946 20.8747 17.587 20.878 17.5795 20.881C17.5485 20.8945 17.5175 20.9077 17.4865 20.9207C17.4609 20.9315 17.4349 20.9423 17.409 20.9526C17.3939 20.9589 17.3789 20.9652 17.3635 20.9712C17.3041 20.9953 17.2441 21.0187 17.1837 21.0416C17.1618 21.0501 17.1397 21.0584 17.1177 21.0662C17.1089 21.0697 17.1001 21.073 17.0913 21.076C17.0712 21.0836 17.0511 21.0911 17.0309 21.0983C16.9608 21.1235 16.8902 21.1481 16.8191 21.1718C16.7872 21.1826 16.755 21.1931 16.7225 21.2035C16.7202 21.2045 16.7177 21.2052 16.7152 21.2059C16.6837 21.216 16.652 21.2263 16.62 21.2359C16.6124 21.2386 16.6046 21.2409 16.5966 21.2432C16.5772 21.2492 16.5578 21.2552 16.5381 21.261C16.5214 21.2658 16.5047 21.271 16.4881 21.2759C16.4584 21.2847 16.4286 21.2932 16.3985 21.3018C16.3763 21.3081 16.3541 21.3143 16.3317 21.3206C16.3201 21.3239 16.3085 21.3269 16.2969 21.3299C16.273 21.3366 16.2489 21.3429 16.2252 21.3492C16.2194 21.351 16.2133 21.3523 16.2076 21.3538C16.1827 21.3605 16.158 21.3668 16.133 21.3731C16.0943 21.3829 16.0555 21.3925 16.0165 21.4018C15.9888 21.4085 15.9608 21.415 15.9327 21.4214C15.9005 21.4289 15.8684 21.4363 15.836 21.4433C15.8189 21.447 15.8015 21.4507 15.7841 21.4543C15.7566 21.4604 15.7288 21.4662 15.701 21.4718C15.6964 21.4729 15.6915 21.4739 15.6869 21.4746C15.6504 21.4822 15.6137 21.4894 15.5769 21.4963C15.5459 21.5023 15.5149 21.5079 15.4838 21.5136C15.4561 21.5186 15.4283 21.5235 15.4004 21.5284C15.3934 21.5295 15.3861 21.5307 15.379 21.5318C15.3584 21.5355 15.3375 21.5388 15.3168 21.5423C15.2904 21.5465 15.264 21.5506 15.2375 21.5546C15.1947 21.5613 15.1519 21.5675 15.1091 21.5735C15.0905 21.5762 15.0718 21.5787 15.0533 21.5812C15.0207 21.5856 14.988 21.5898 14.9551 21.5938C14.9324 21.5968 14.9097 21.5996 14.8868 21.6018C14.8712 21.6039 14.8551 21.6058 14.8392 21.6074C14.8241 21.6093 14.8088 21.6109 14.7936 21.6123C14.7723 21.6149 14.751 21.6169 14.7297 21.619C14.6977 21.6222 14.666 21.6252 14.634 21.628C14.6081 21.6303 14.5824 21.6327 14.5565 21.6345C14.5484 21.6355 14.5401 21.6362 14.532 21.6366C14.5072 21.6387 14.4822 21.6406 14.4575 21.6421C14.4437 21.6433 14.4301 21.6443 14.4165 21.645C14.3971 21.6463 14.3778 21.6478 14.3583 21.6489C14.3204 21.6512 14.2822 21.6533 14.244 21.6552C14.2075 21.6571 14.1708 21.6586 14.1343 21.6601C14.103 21.6612 14.072 21.6621 14.0408 21.6631C14.0217 21.6635 14.0031 21.664 13.984 21.6644C13.9613 21.6649 13.9387 21.6654 13.9157 21.6659C13.9007 21.6661 13.8857 21.6662 13.8706 21.6662C13.8344 21.6667 13.7986 21.667 13.7624 21.667H13.7422L13.7481 15.254V15.2527L13.7511 12.0732L15.9946 14.3248L19.5282 17.8706L19.5315 17.8739C20.1007 18.4489 20.0234 19.4002 19.3648 19.8713Z" fill="#2A1A6E"/>
<path d="M13.7511 12.0732L13.742 21.667C11.128 21.6617 8.75753 20.6148 7.02344 18.9184L13.7511 12.0732Z" fill="#2A1A6E"/>
<path d="M13.7525 12.0735L7.02495 18.9187C5.24385 17.1771 4.13316 14.7508 4.11719 12.0645L13.7525 12.0735Z" fill="#5B44D1"/>
<path d="M13.7525 12.0732L4.11719 12.0644C4.11719 12.0447 4.11719 12.025 4.11719 12.0053C4.11719 9.35409 5.18321 6.95214 6.91012 5.20654L13.7527 12.0732H13.7525Z" fill="#5B44D1"/>
<path d="M13.7657 2.34326L13.7567 12.073L6.91406 5.20637C8.66159 3.43875 11.086 2.34395 13.7657 2.34326Z" fill="#9888E4"/>
<path d="M19.5733 6.15603L16.0137 9.77775L13.7578 12.073L13.7608 8.85382V8.85244L13.7669 2.34326H13.7691C13.8055 2.34326 13.8416 2.34326 13.8777 2.34395C13.8925 2.34395 13.9074 2.34419 13.9222 2.34442C13.946 2.34488 13.9696 2.34535 13.9932 2.34581C14.0106 2.34628 14.028 2.34674 14.0453 2.34721C14.0615 2.34766 14.0777 2.34812 14.0939 2.34882C14.1152 2.34929 14.1365 2.35021 14.1579 2.35091C14.1927 2.35231 14.2279 2.35392 14.2631 2.35578C14.302 2.35764 14.3409 2.35995 14.3795 2.3625C14.3858 2.36274 14.3921 2.36297 14.3983 2.36366C14.4281 2.36528 14.458 2.36737 14.4877 2.36969C14.4995 2.37061 14.5111 2.37131 14.5229 2.37224C14.5467 2.3741 14.5706 2.37619 14.5942 2.37827C14.6116 2.37966 14.6289 2.38105 14.6463 2.38267C14.6481 2.3829 14.6499 2.3829 14.6518 2.38313C14.6849 2.38615 14.7178 2.38939 14.7506 2.39265C14.7846 2.39612 14.8185 2.39982 14.8525 2.40354C14.8777 2.40632 14.9029 2.40934 14.9281 2.41236C14.9312 2.41258 14.9344 2.41304 14.9374 2.41351C14.9646 2.41676 14.9913 2.42 15.0182 2.42347C15.0319 2.42533 15.0459 2.42719 15.0597 2.42905C15.0812 2.43182 15.1028 2.43484 15.124 2.43785C15.1687 2.44411 15.2134 2.45084 15.2581 2.4578C15.2861 2.46197 15.3141 2.46637 15.3421 2.47125C15.3472 2.47193 15.3525 2.47286 15.3576 2.47379C15.3856 2.47819 15.4134 2.48306 15.4409 2.48794C15.4611 2.49141 15.4812 2.49488 15.5011 2.4986C15.5764 2.51227 15.6516 2.52688 15.7264 2.54218C15.7511 2.54729 15.7757 2.55239 15.8002 2.55772C15.8155 2.56096 15.8307 2.56445 15.8461 2.56792C15.8727 2.57348 15.8991 2.57951 15.9254 2.58554C15.9312 2.58693 15.937 2.5881 15.9428 2.58971C15.9799 2.59806 16.0165 2.60663 16.0533 2.61568C16.0547 2.61568 16.056 2.61638 16.0572 2.61661C16.0943 2.62565 16.1313 2.63493 16.1683 2.64443H16.169C16.2021 2.65301 16.235 2.66159 16.2676 2.6704C16.2942 2.67759 16.3209 2.68477 16.3478 2.69219C16.3722 2.69915 16.3967 2.70587 16.4213 2.71305C16.4514 2.72164 16.4813 2.73022 16.5114 2.73926C16.5468 2.74969 16.5825 2.76036 16.6179 2.77126C16.663 2.78539 16.7079 2.79977 16.753 2.81437C16.7849 2.82481 16.8169 2.83525 16.8486 2.84614C16.8848 2.8582 16.9206 2.87049 16.9563 2.88301C16.9574 2.88347 16.9586 2.88394 16.9599 2.8844C16.9971 2.89738 17.0339 2.91059 17.0707 2.92404C17.1031 2.93587 17.1354 2.94769 17.1679 2.95998C17.1764 2.96322 17.1852 2.96647 17.1938 2.96972C17.2157 2.9783 17.2378 2.98664 17.2598 2.99545C17.3496 3.03023 17.439 3.0664 17.5274 3.10419C17.5556 3.11601 17.5838 3.12807 17.6119 3.14036C17.613 3.14082 17.6145 3.14128 17.6155 3.14198C17.651 3.15728 17.6862 3.17282 17.7212 3.18881C17.753 3.20296 17.7846 3.21756 17.8162 3.23217C17.8255 3.23634 17.8348 3.24075 17.8441 3.24516C17.8738 3.25883 17.9033 3.27298 17.9327 3.28711C17.967 3.30358 18.0015 3.32028 18.0355 3.3372C18.0367 3.33766 18.0375 3.33813 18.0383 3.33859C18.0672 3.35273 18.0959 3.36734 18.1246 3.38194C18.1906 3.41533 18.2559 3.44941 18.3209 3.48442C18.3404 3.49485 18.36 3.50528 18.3796 3.51619C18.3902 3.52199 18.401 3.52778 18.4116 3.53381C18.4307 3.54401 18.4494 3.55444 18.4682 3.5651C18.5332 3.6015 18.5979 3.6386 18.6617 3.6764C18.6911 3.69379 18.7205 3.71118 18.7497 3.72903C18.7765 3.74502 18.8031 3.76148 18.8295 3.77794C18.8948 3.81806 18.9594 3.8591 19.0235 3.90105C19.0405 3.91196 19.0574 3.92308 19.0742 3.93421C19.0911 3.94534 19.108 3.9567 19.1249 3.96806C19.1471 3.98267 19.1691 3.9975 19.1909 4.01258C19.2112 4.02648 19.2316 4.0404 19.252 4.05455C19.3022 4.08932 19.352 4.12456 19.4016 4.16027C19.4031 4.16142 19.4048 4.16258 19.4061 4.16374C20.0578 4.63811 20.1388 5.58057 19.5733 6.15603Z" fill="#9888E4"/>
<path d="M17.8132 20.7798C17.7455 20.8111 17.6778 20.8414 17.6094 20.8711C17.6778 20.8414 17.7458 20.8109 17.8132 20.7798Z" fill="#2A1A6E"/>
<path d="M13.7762 13.9117C14.7916 13.9117 15.6149 13.0886 15.6149 12.073C15.6149 11.0576 14.7916 10.2344 13.7762 10.2344C12.7607 10.2344 11.9375 11.0576 11.9375 12.073C11.9375 13.0886 12.7607 13.9117 13.7762 13.9117Z" fill="white"/>
</g>
<defs>
<clipPath id="clip0_3401_67318">
<rect width="78.0301" height="24" fill="white"/>
</clipPath>
</defs>
</svg>