

<svg width="74" height="24" viewBox="0 0 74 24" fill="none" xmlns="http://www.w3.org/2000/svg">
<g clip-path="url(#clip0_3405_68845)">
<path d="M18.9951 21.7632C18.9339 21.8069 18.8721 21.8504 18.8101 21.8929C18.7979 21.9013 18.7856 21.9096 18.7736 21.9179C18.7457 21.9372 18.7179 21.9559 18.69 21.9746C18.6595 21.9947 18.6293 22.0149 18.5986 22.035C18.5759 22.0502 18.5529 22.0652 18.5296 22.0801C18.5273 22.0813 18.525 22.083 18.5227 22.0845C18.4928 22.104 18.4627 22.1233 18.4325 22.1422C18.3957 22.1655 18.3589 22.1885 18.3222 22.2113C18.2854 22.234 18.2486 22.2564 18.2114 22.2786C18.1798 22.2978 18.1483 22.3165 18.1167 22.3352C18.0975 22.3468 18.0779 22.3582 18.0584 22.3694C18.0239 22.3896 17.9891 22.4097 17.9543 22.4296C17.913 22.4531 17.871 22.4768 17.8294 22.4997C17.7897 22.5216 17.75 22.5435 17.7101 22.5647C17.6802 22.5811 17.6503 22.5969 17.6204 22.6125C17.5981 22.6245 17.5753 22.6367 17.553 22.6482C17.5511 22.6492 17.5492 22.6502 17.5474 22.651C17.4802 22.6858 17.4123 22.7204 17.3443 22.754C17.3055 22.7732 17.2664 22.7923 17.2273 22.811C17.2034 22.8228 17.1796 22.8342 17.1558 22.8452C17.1239 22.8604 17.092 22.8754 17.0598 22.8903C16.9762 22.9288 16.8917 22.9668 16.8069 23.0036C16.7977 23.0079 16.7882 23.012 16.779 23.0158C16.7406 23.0324 16.7021 23.0488 16.6635 23.0648C16.6317 23.0785 16.5995 23.0916 16.5673 23.1046C16.5486 23.1124 16.5299 23.1201 16.5109 23.1276C16.4371 23.1575 16.3627 23.1865 16.2877 23.215C16.2603 23.2254 16.2331 23.2357 16.2058 23.2455C16.1948 23.2498 16.184 23.2538 16.173 23.2576C16.1481 23.2671 16.1231 23.2763 16.098 23.2852C16.0109 23.3165 15.9234 23.347 15.8351 23.3764C15.7954 23.3899 15.7555 23.4029 15.7153 23.4158C15.7124 23.4169 15.7093 23.4178 15.706 23.4187C15.667 23.4313 15.6276 23.444 15.588 23.4561C15.5786 23.4592 15.5687 23.4621 15.5589 23.465C15.5348 23.4725 15.5107 23.48 15.4863 23.4871C15.4656 23.4931 15.4449 23.4995 15.4242 23.5055C15.3874 23.5164 15.3504 23.5271 15.313 23.5377C15.2854 23.5454 15.2579 23.5533 15.2299 23.561C15.2155 23.5651 15.2012 23.5688 15.1868 23.5726C15.1573 23.5809 15.1274 23.5886 15.0977 23.5963C15.0906 23.5987 15.0831 23.6004 15.0759 23.6021C15.0451 23.6104 15.0144 23.6183 14.9834 23.626C14.9354 23.6384 14.8871 23.6501 14.8389 23.6617C14.8044 23.67 14.7696 23.6781 14.7348 23.6862C14.6949 23.6953 14.655 23.7045 14.6147 23.7132C14.5935 23.7178 14.5719 23.7224 14.5503 23.7269C14.5162 23.7344 14.4817 23.7417 14.4472 23.7485C14.4414 23.75 14.4354 23.7511 14.4297 23.752C14.3842 23.7614 14.3389 23.7704 14.2932 23.779C14.2547 23.7865 14.2161 23.7934 14.1776 23.8003C14.1431 23.8067 14.1087 23.8127 14.0739 23.8187C14.0654 23.8202 14.0564 23.8216 14.0475 23.8231C14.0219 23.8277 13.996 23.8316 13.9702 23.836C13.9374 23.8412 13.9047 23.8463 13.8719 23.8512C13.8187 23.8596 13.7657 23.8673 13.7125 23.8748C13.6894 23.8779 13.6662 23.8811 13.6432 23.8843C13.6027 23.8898 13.5622 23.8949 13.5213 23.8998C13.4932 23.9035 13.465 23.907 13.4365 23.9099C13.417 23.9124 13.3972 23.9147 13.3774 23.9168C13.3587 23.9191 13.3397 23.9211 13.3208 23.9228C13.2943 23.9259 13.2679 23.9286 13.2415 23.9311C13.2018 23.9352 13.1624 23.939 13.1228 23.9423C13.0906 23.9452 13.0587 23.9481 13.0265 23.9504C13.0165 23.9516 13.0061 23.9525 12.9961 23.9531C12.9653 23.9556 12.9343 23.9579 12.9036 23.96C12.8866 23.9614 12.8696 23.9625 12.8527 23.9633C12.8286 23.9651 12.8047 23.9668 12.7806 23.9683C12.7334 23.9712 12.686 23.9737 12.6386 23.976C12.5932 23.9783 12.5478 23.9803 12.5023 23.982C12.4636 23.9835 12.4252 23.9847 12.3863 23.9858C12.3628 23.9864 12.3395 23.987 12.3159 23.9876C12.2878 23.9881 12.2596 23.9887 12.2311 23.9893C12.2124 23.9895 12.1938 23.9899 12.1751 23.9899C12.1303 23.9905 12.0858 23.9907 12.0409 23.9907H12.0156L12.0231 16.0355V16.0338L12.0268 12.0898L14.8115 14.8828L19.198 19.2814L19.202 19.2855C19.9086 19.9987 19.8126 21.1787 18.9951 21.7632Z" fill="#2A1A6E"/>
<path d="M12.0307 12.0898L12.0195 23.9907C8.77472 23.9841 5.83223 22.6855 3.67969 20.5811L12.0307 12.0898Z" fill="#2A1A6E"/>
<path d="M12.0308 12.0898L3.67974 20.5811C1.46886 18.4206 0.0901398 15.4108 0.0703125 12.0786L12.0308 12.0898Z" fill="#5B44D1"/>
<path d="M12.0308 12.0893L0.0703125 12.0785C0.0703125 12.054 0.0703125 12.0295 0.0703125 12.0051C0.0703125 8.7163 1.39357 5.73668 3.53721 3.57129L12.0311 12.0893H12.0308Z" fill="#5B44D1"/>
<path d="M12.0441 0.0200195L12.0329 12.0897L3.53906 3.57169C5.70828 1.37897 8.71771 0.0208824 12.0441 0.0200195Z" fill="#9888E4"/>
<path d="M19.2501 4.74972L14.8315 9.24244L12.0312 12.0897L12.035 8.09632V8.09459L12.0425 0.0200195H12.0453C12.0905 0.0200195 12.1353 0.0200194 12.1801 0.0208822C12.1985 0.0208822 12.2168 0.02117 12.2353 0.0214576C12.2648 0.0220328 12.2942 0.0226079 12.3235 0.0231832C12.345 0.0237583 12.3666 0.0243335 12.3881 0.0249088C12.4082 0.0254839 12.4284 0.0260593 12.4485 0.0269222C12.4749 0.0274974 12.5013 0.0286477 12.5278 0.0295105C12.5712 0.0312362 12.6148 0.0332492 12.6585 0.0355501C12.7069 0.0378509 12.7551 0.0407272 12.8031 0.043891C12.8108 0.0441785 12.8185 0.0444662 12.8264 0.045329C12.8634 0.0473423 12.9005 0.0499306 12.9373 0.0528067C12.9519 0.0539571 12.9663 0.0548199 12.981 0.0559703C13.0105 0.0582712 13.0401 0.0608596 13.0695 0.0634479C13.091 0.0651737 13.1126 0.0668994 13.1342 0.0689126C13.1364 0.0692002 13.1387 0.0692004 13.141 0.069488C13.1822 0.0732268 13.2229 0.0772535 13.2637 0.08128C13.3059 0.085594 13.3479 0.0901954 13.3902 0.0947971C13.4214 0.0982484 13.4528 0.101987 13.4841 0.105726C13.4879 0.106014 13.4919 0.106589 13.4956 0.107164C13.5292 0.111191 13.5625 0.115217 13.5958 0.119531C13.6128 0.121832 13.6301 0.124133 13.6473 0.126434C13.6741 0.129885 13.7007 0.133625 13.7272 0.137363C13.7826 0.145129 13.8381 0.153469 13.8936 0.162098C13.9283 0.167274 13.9631 0.172739 13.9979 0.178779C14.0042 0.179642 14.0108 0.180793 14.0171 0.181942C14.0519 0.187406 14.0864 0.193446 14.1206 0.199486C14.1455 0.203801 14.1706 0.208114 14.1953 0.212716C14.2887 0.229685 14.382 0.247804 14.4749 0.266786C14.5057 0.273114 14.536 0.279441 14.5666 0.286056C14.5855 0.290083 14.6045 0.294397 14.6235 0.298711C14.6565 0.305613 14.6892 0.313092 14.722 0.320569C14.7292 0.322295 14.7364 0.323733 14.7436 0.325747C14.7895 0.3361 14.8349 0.346741 14.8806 0.357958C14.8824 0.357958 14.8841 0.358821 14.8855 0.359108C14.9315 0.370325 14.9774 0.381829 15.0234 0.393622H15.0244C15.0654 0.404263 15.1063 0.414905 15.1468 0.425834C15.1798 0.434749 15.2129 0.443665 15.2462 0.452868C15.2765 0.461496 15.3071 0.469837 15.3376 0.478753C15.3748 0.489394 15.412 0.500036 15.4492 0.511253C15.4933 0.524195 15.5375 0.537424 15.5814 0.550943C15.6375 0.568487 15.6932 0.586318 15.7493 0.604437C15.789 0.617379 15.8285 0.630322 15.868 0.643839C15.9128 0.658795 15.9573 0.674038 16.0016 0.68957C16.0031 0.690145 16.0045 0.690719 16.0062 0.691294C16.0521 0.707401 16.0978 0.723794 16.1436 0.740476C16.1837 0.755144 16.224 0.769812 16.2643 0.785055C16.2749 0.78908 16.2857 0.793107 16.2964 0.797134C16.3237 0.807776 16.351 0.81813 16.3783 0.829059C16.4898 0.8722 16.6008 0.917067 16.7105 0.963946C16.7455 0.978614 16.7806 0.99357 16.8153 1.00881C16.8168 1.00939 16.8186 1.00996 16.82 1.01083C16.8639 1.02981 16.9076 1.04908 16.951 1.06892C16.9907 1.08647 17.0298 1.10459 17.0691 1.12271C17.0806 1.12788 17.0921 1.13335 17.1036 1.13881C17.1403 1.15578 17.1771 1.17332 17.2137 1.19087C17.2561 1.21129 17.2989 1.232 17.3413 1.253C17.3427 1.25356 17.3438 1.25414 17.3446 1.25472C17.3806 1.27226 17.4162 1.29038 17.4519 1.3085C17.5338 1.34991 17.6148 1.3922 17.6955 1.43563C17.7197 1.44857 17.7441 1.46151 17.7682 1.47503C17.7815 1.48221 17.795 1.4894 17.8081 1.49688C17.8318 1.50953 17.855 1.52248 17.8783 1.53571C17.959 1.58087 18.0392 1.62688 18.1186 1.67376C18.155 1.69533 18.1915 1.71691 18.2277 1.73905C18.261 1.75889 18.294 1.77931 18.3268 1.79974C18.4079 1.84949 18.4881 1.90039 18.5677 1.95246C18.5887 1.96597 18.6096 1.97977 18.6305 1.99358C18.6515 2.00738 18.6725 2.02148 18.6935 2.03557C18.7211 2.05369 18.7483 2.0721 18.7754 2.09079C18.8007 2.10805 18.826 2.12531 18.8512 2.14285C18.9136 2.18599 18.9754 2.22971 19.0369 2.274C19.0389 2.27543 19.0409 2.27687 19.0426 2.27832C19.8515 2.86676 19.9521 4.03587 19.2501 4.74972Z" fill="#9888E4"/>
<path d="M17.0654 22.8901C16.9815 22.929 16.8973 22.9666 16.8125 23.0034C16.8973 22.9666 16.9817 22.9286 17.0654 22.8901Z" fill="#2A1A6E"/>
<path d="M24.2969 14.3684C24.2969 9.88257 27.2756 6.95703 31.7295 6.95703C35.5991 6.95703 38.2435 9.24178 38.522 12.808H34.3741C34.0678 11.387 33.0937 10.5234 31.7295 10.5234C29.8644 10.5234 28.6118 12.0278 28.6118 14.3684C28.6118 16.709 29.8644 18.2134 31.7295 18.2134C33.1215 18.2134 34.1235 17.2939 34.4298 15.7615H38.5777C38.2992 19.4395 35.6269 21.7797 31.7295 21.7797C27.2756 21.7797 24.2969 18.8542 24.2969 14.3684Z" fill="#2A1A6E"/>
<path d="M40.8047 2.37891H45.0639V4.96997C45.0639 7.42181 44.5348 9.45577 43.6719 11.0439V11.3226H45.0639C45.565 8.98209 47.0961 7.50551 49.6015 7.50551C52.5523 7.50551 54.1948 9.53947 54.1948 13.2174V21.8828H49.9357V13.9977C49.9357 12.0474 49.1006 11.0721 47.5972 11.0721C46.1773 11.0721 45.0639 12.5487 45.0639 14.4156V21.8828H40.8047V2.37891Z" fill="#2A1A6E"/>
<path d="M56.8438 2.24951H61.1028V6.15033H56.8438V2.24951ZM56.8716 7.82219H61.1028V21.7533H56.8716V7.82219Z" fill="#2A1A6E"/>
<path d="M65.7177 18.0754L65.7456 11.1656H62.9062V7.82221H65.857V3.92139H69.476V7.82221H73.2897V11.1656H69.615V17.2954C69.615 18.1033 69.8935 18.4099 70.5895 18.4099H73.6239V21.7533H69.4205C66.9708 21.7533 65.718 20.416 65.718 18.0754H65.7177Z" fill="#2A1A6E"/>
<path d="M12.0301 14.3719C13.2895 14.3719 14.3103 13.3502 14.3103 12.0898C14.3103 10.8294 13.2895 9.80762 12.0301 9.80762C10.7709 9.80762 9.75 10.8294 9.75 12.0898C9.75 13.3502 10.7709 14.3719 12.0301 14.3719Z" fill="white"/>
</g>
<defs>
<clipPath id="clip0_3405_68845">
<rect width="73.6884" height="24" fill="white"/>
</clipPath>
</defs>
</svg>

