<svg width="49" height="49" viewBox="0 0 49 49" fill="none" xmlns="http://www.w3.org/2000/svg">
<g clip-path="url(#clip0_3186_70840)">
<path d="M41.128 0.5H7.87201C3.80056 0.5 0.5 3.80056 0.5 7.87201V41.128C0.5 45.1994 3.80056 48.5 7.87201 48.5H41.128C45.1994 48.5 48.5 45.1994 48.5 41.128V7.87201C48.5 3.80056 45.1994 0.5 41.128 0.5Z" fill="#EAE5FF"/>
<path d="M37.4813 38.6017C37.394 38.6641 37.306 38.726 37.2174 38.7868C37.2002 38.7987 37.1826 38.8107 37.1654 38.8227C37.1256 38.8502 37.086 38.8769 37.0462 38.9036C37.0028 38.9323 36.9597 38.9611 36.9159 38.9898C36.8835 39.0115 36.8507 39.033 36.8176 39.0543C36.8144 39.0559 36.8111 39.0584 36.8078 39.0605C36.7652 39.0884 36.7221 39.1159 36.679 39.1431C36.6266 39.1764 36.5742 39.2091 36.5218 39.2416C36.4694 39.2742 36.4169 39.3061 36.364 39.3377C36.319 39.3652 36.2739 39.3919 36.2289 39.4186C36.2013 39.4352 36.1735 39.4516 36.1456 39.4676C36.0965 39.4963 36.047 39.5251 35.9974 39.5535C35.9384 39.5871 35.8786 39.6208 35.8191 39.6537C35.7626 39.6849 35.7061 39.7161 35.6491 39.7465C35.6065 39.7699 35.5639 39.7925 35.5213 39.8148C35.4894 39.832 35.4569 39.8492 35.425 39.8657C35.4225 39.8674 35.4197 39.8685 35.4173 39.8698C35.3215 39.9195 35.2246 39.9688 35.1276 40.0168C35.0723 40.0443 35.0166 40.0715 34.9609 40.0982C34.9268 40.1151 34.8929 40.1314 34.8588 40.147C34.8134 40.1688 34.7679 40.1903 34.722 40.2115C34.6028 40.2666 34.4823 40.3208 34.3614 40.3734C34.3483 40.3796 34.3349 40.3854 34.3218 40.3906C34.2668 40.4145 34.2119 40.438 34.157 40.4609C34.1116 40.4802 34.0656 40.4991 34.0197 40.5176C33.9932 40.5287 33.9665 40.5399 33.9394 40.5505C33.8341 40.5931 33.7281 40.6347 33.6211 40.6753C33.5821 40.6901 33.5433 40.705 33.5043 40.7189C33.4888 40.725 33.4732 40.7309 33.4576 40.7361C33.4221 40.7497 33.3864 40.7628 33.3508 40.7756C33.2266 40.8203 33.1017 40.8639 32.9758 40.9058C32.9193 40.9252 32.8625 40.9435 32.805 40.962C32.8009 40.9637 32.7965 40.965 32.7919 40.9661C32.7362 40.9843 32.6801 41.0023 32.6236 41.0195C32.61 41.0241 32.5961 41.0282 32.5822 41.0323C32.5478 41.0429 32.5134 41.0538 32.4785 41.0639C32.449 41.0726 32.4195 41.0816 32.39 41.0903C32.3376 41.1059 32.2847 41.1211 32.2314 41.1363C32.1921 41.1473 32.1528 41.1584 32.113 41.1696C32.0925 41.1753 32.072 41.1806 32.0516 41.186C32.0094 41.1979 31.9669 41.2089 31.9246 41.22C31.9144 41.2233 31.9038 41.2258 31.8935 41.2282C31.8496 41.2402 31.8058 41.2513 31.7616 41.2623C31.6931 41.28 31.6243 41.2969 31.5555 41.3133C31.5063 41.3252 31.4567 41.3367 31.4072 41.3481C31.3502 41.3614 31.2932 41.3745 31.2359 41.3868C31.2056 41.3934 31.1749 41.3999 31.1441 41.4066C31.0953 41.4173 31.0462 41.4274 30.997 41.4374C30.9888 41.4394 30.9803 41.441 30.9721 41.4423C30.9073 41.4558 30.8425 41.4686 30.7775 41.4808C30.7226 41.4917 30.6677 41.5015 30.6127 41.5113C30.5636 41.5203 30.5144 41.529 30.4649 41.5377C30.4526 41.5397 30.4399 41.5418 30.4273 41.5438C30.3907 41.5503 30.3539 41.556 30.317 41.5623C30.2703 41.5696 30.2236 41.577 30.1769 41.5841C30.1011 41.596 30.0252 41.607 29.9495 41.6176C29.9166 41.6222 29.8835 41.6268 29.8508 41.6312C29.7929 41.6391 29.7353 41.6465 29.6769 41.6535C29.6368 41.6588 29.5967 41.6637 29.5562 41.6678C29.5284 41.6715 29.5 41.6748 29.4718 41.6778C29.4451 41.681 29.4181 41.6838 29.3911 41.6863C29.3534 41.6909 29.3157 41.6945 29.278 41.6982C29.2215 41.704 29.1653 41.7094 29.1088 41.7143C29.0629 41.7184 29.0174 41.7225 28.9715 41.7258C28.9571 41.7274 28.9424 41.7287 28.9281 41.7295C28.8842 41.7331 28.84 41.7364 28.7962 41.7394C28.772 41.7413 28.7479 41.743 28.7237 41.7443C28.6893 41.7467 28.6552 41.7492 28.6208 41.7512C28.5536 41.7554 28.4861 41.759 28.4185 41.7623C28.3538 41.7656 28.289 41.7685 28.2242 41.771C28.169 41.7729 28.1141 41.7746 28.0587 41.7762C28.0251 41.777 27.992 41.7779 27.9583 41.7787C27.9181 41.7795 27.878 41.7805 27.8375 41.7813C27.8108 41.7816 27.7843 41.7821 27.7576 41.7821C27.6937 41.7829 27.6301 41.7833 27.5663 41.7833H27.5302L27.5409 30.4204V30.4179L27.5463 24.7845L31.5165 28.774L37.7706 35.0567L37.7763 35.0624C38.7837 36.0813 38.6469 37.7668 37.4813 38.6017Z" fill="#2A1A6E"/>
<path d="M27.5463 24.7845L27.5304 41.7833C22.9041 41.7738 18.7089 39.919 15.6398 36.9131L27.5463 24.7845Z" fill="#2A1A6E"/>
<path d="M27.5463 24.7846L15.6397 36.9132C12.4876 33.8273 10.5218 29.5283 10.4932 24.7686L27.5458 24.7846H27.5463Z" fill="#5B44D1"/>
<path d="M27.5463 24.7843L10.4932 24.7685C10.4932 24.7336 10.4932 24.6988 10.4932 24.6639C10.4932 19.9662 12.3798 15.7104 15.4361 12.6174L27.5463 24.7843Z" fill="#5B44D1"/>
<path d="M27.5623 7.54431L27.5463 24.7842L15.4362 12.6173C18.529 9.48536 22.8197 7.54554 27.5623 7.54431Z" fill="#9888E4"/>
<path d="M37.8386 14.3L31.5386 20.7171L27.5463 24.7842L27.5515 19.08V19.0776L27.5622 7.54431H27.5663C27.6306 7.54431 27.6945 7.54431 27.7584 7.54554C27.7846 7.54554 27.8108 7.54595 27.837 7.54636C27.8793 7.54719 27.9211 7.54801 27.9629 7.54883C27.9937 7.54965 28.0243 7.55047 28.0551 7.55129C28.0838 7.55211 28.1124 7.55294 28.1411 7.55417C28.1788 7.55499 28.2165 7.55663 28.2541 7.55788C28.3161 7.56033 28.3783 7.56322 28.4406 7.56649C28.5094 7.56979 28.5782 7.57388 28.6467 7.5784C28.6578 7.57881 28.6688 7.57922 28.6799 7.58047C28.7327 7.58333 28.7856 7.58704 28.838 7.59115C28.8588 7.59279 28.8793 7.59402 28.9003 7.59567C28.9425 7.59895 28.9846 7.60265 29.0264 7.60635C29.0572 7.60881 29.0878 7.61127 29.1186 7.61415C29.1219 7.61456 29.1252 7.61456 29.1285 7.61497C29.1871 7.62031 29.2453 7.62606 29.3034 7.63181C29.3635 7.63797 29.4235 7.64455 29.4836 7.65112C29.5284 7.65605 29.5729 7.6614 29.6176 7.66674C29.6229 7.66715 29.6288 7.66796 29.634 7.66878C29.682 7.67453 29.7295 7.68028 29.777 7.68644C29.8011 7.68974 29.8257 7.69303 29.8503 7.69631C29.8884 7.70124 29.9266 7.70658 29.9643 7.71192C30.0432 7.72301 30.1224 7.73492 30.2015 7.74725C30.251 7.75464 30.3006 7.76244 30.3501 7.77107C30.3591 7.7723 30.3686 7.77396 30.3776 7.7756C30.4272 7.78339 30.4764 7.79203 30.525 7.80066C30.5608 7.80682 30.5963 7.81298 30.6317 7.81955C30.7647 7.8438 30.8979 7.86966 31.0303 7.89678C31.074 7.90582 31.1176 7.91486 31.161 7.9243C31.188 7.93006 31.2151 7.93622 31.2421 7.94238C31.2891 7.95225 31.336 7.96293 31.3827 7.97361C31.3928 7.97607 31.4031 7.97811 31.4133 7.981C31.4788 7.99579 31.5435 8.01099 31.6087 8.02701C31.6112 8.02701 31.6137 8.02824 31.6158 8.02865C31.6813 8.04467 31.7468 8.06111 31.8124 8.07795H31.8135C31.8722 8.09315 31.9303 8.10835 31.9881 8.12396C32.0352 8.13669 32.0823 8.14942 32.1299 8.16258C32.1733 8.1749 32.2167 8.18681 32.2601 8.19955C32.3135 8.21474 32.3662 8.22994 32.4195 8.24596C32.4822 8.26446 32.5453 8.28335 32.6081 8.30266C32.6878 8.32771 32.7673 8.35319 32.8472 8.37907C32.9038 8.39755 32.9603 8.41604 33.0165 8.43534C33.0804 8.4567 33.1439 8.47848 33.207 8.50066C33.209 8.50149 33.2111 8.50231 33.2135 8.50313C33.2791 8.52613 33.3443 8.54954 33.4093 8.57338C33.4666 8.59433 33.524 8.61528 33.5815 8.63706C33.5966 8.64281 33.6121 8.64856 33.6274 8.65431C33.6662 8.66951 33.7052 8.68429 33.744 8.6999C33.9031 8.76153 34.0612 8.82562 34.2176 8.89257C34.2677 8.91352 34.3177 8.93489 34.3672 8.95666C34.3693 8.95748 34.3718 8.9583 34.3737 8.95952C34.4365 8.98665 34.4987 9.01418 34.5607 9.04252C34.6172 9.06758 34.6729 9.09345 34.7289 9.11933C34.7454 9.12672 34.7618 9.13454 34.7782 9.14233C34.8306 9.16658 34.8831 9.19165 34.935 9.21669C34.9958 9.24587 35.0567 9.27544 35.117 9.30544C35.119 9.30626 35.1206 9.30708 35.1219 9.30789C35.173 9.33296 35.2238 9.35884 35.2748 9.38471C35.3914 9.44387 35.5071 9.50427 35.6221 9.56629C35.6565 9.58477 35.6914 9.60327 35.7258 9.62256C35.7446 9.63284 35.7639 9.64311 35.7828 9.65379C35.8164 9.67187 35.8494 9.69035 35.8827 9.70926C35.9979 9.77374 36.1121 9.83948 36.2253 9.90644C36.2772 9.93725 36.3293 9.96807 36.3809 9.99968C36.4284 10.028 36.4756 10.0572 36.5223 10.0864C36.6378 10.1574 36.7521 10.2301 36.8655 10.3045C36.8955 10.3238 36.9253 10.3435 36.9552 10.3633C36.9852 10.383 37.015 10.4031 37.045 10.4232C37.0843 10.4491 37.1232 10.4754 37.1617 10.5021C37.1979 10.5268 37.2339 10.5514 37.2699 10.5765C37.3587 10.6381 37.4469 10.7005 37.5345 10.7638C37.5375 10.7658 37.5403 10.7679 37.5427 10.7699C38.696 11.6105 38.8394 13.2804 37.8386 14.3Z" fill="#9888E4"/>
<path d="M34.722 40.2115C34.6024 40.2669 34.4824 40.3208 34.3615 40.3734C34.4824 40.3208 34.6028 40.2666 34.722 40.2115Z" fill="#2A1A6E"/>
<path d="M27.5463 28.0443C29.3418 28.0443 30.7972 26.5849 30.7972 24.7845C30.7972 22.9843 29.3418 21.5248 27.5463 21.5248C25.751 21.5248 24.2954 22.9843 24.2954 24.7845C24.2954 26.5849 25.751 28.0443 27.5463 28.0443Z" fill="white"/>
</g>
<defs>
<clipPath id="clip0_3186_70840">
<rect width="48" height="48" fill="white" transform="translate(0.5 0.5)"/>
</clipPath>
</defs>
</svg>
